<?xml version="1.0" standalone="no"?>
<!DOCTYPE svg PUBLIC "-//W3C//DTD SVG 20010904//EN"
 "http://www.w3.org/TR/2001/REC-SVG-20010904/DTD/svg10.dtd">
<svg version="1.0" xmlns="http://www.w3.org/2000/svg"
 width="512.000000pt" height="512.000000pt" viewBox="0 0 512.000000 512.000000"
 preserveAspectRatio="xMidYMid meet">
<metadata>
Created by potrace 1.11, written by Peter Selinger 2001-2013
</metadata>
<g transform="translate(0.000000,512.000000) scale(0.100000,-0.100000)"
fill="#000000" stroke="none">
<path d="M169 4773 c-1 -4 -2 -883 -3 -1953 l-1 -1946 2384 2 c2156 1 2384 3
2392 17 11 20 12 3508 1 3519 -4 4 -681 9 -1502 11 l-1495 4 0 39 0 39 875 2
c481 0 880 2 885 2 8 1 12 232 5 251 -1 3 -2 7 -2 10 1 9 -3538 12 -3539 3z"/>
</g>
</svg>
