<svg xmlns="http://www.w3.org/2000/svg" width="256" height="256"><path fill-opacity=".176" d="M0 128.004v128.004l128.25-.254 128.25-.254.254-127.75L257.008 0H0v128.004m.485.496c0 70.4.119 99.053.265 63.672.146-35.38.146-92.98 0-128C.604 29.153.485 58.1.485 128.5" fill="#607d8b" fill-rule="evenodd"/><path fill-opacity=".272" d="M0 128.004v128.004l128.25-.254 128.25-.254.254-127.75L257.008 0H0v128.004m.485.496c0 70.4.119 99.053.265 63.672.146-35.38.146-92.98 0-128C.604 29.153.485 58.1.485 128.5m69.728-80.993C65.833 49.41 64 54.039 64 63.199v7.263l3.891-7.745c2.14-4.259 5.545-9.763 7.567-12.231L79.134 46l-2.817.039c-1.549.022-4.296.682-6.104 1.468m110.729 3.599c2.271 2.967 5.667 8.544 7.547 12.394l3.419 7 .04-6.5c.078-12.397-2.529-16.598-11.004-17.734l-4.132-.555 4.13 5.395M64.002 143.75c.001 23.839.718 26.802 6.998 28.944 4.608 1.571 107.683 1.8 113.259.251 6.585-1.829 7.196-3.83 7.573-24.806.182-10.15.045-19.982-.305-21.847l-.636-3.392-2.928 5.8C177.102 150.221 152.689 165 128 165c-24.687 0-49.458-15.075-60.387-36.75-1.456-2.888-2.864-5.25-3.13-5.25s-.482 9.338-.481 20.75" fill="#607d8b" fill-rule="evenodd"/><path fill-opacity=".431" d="M118.5 25.63c-10.314 1.601-22.473 6.851-31.311 13.52-4.306 3.248-6.389 4.112-11 4.562-11.828 1.155-13.903 4.254-15.434 23.049-1.279 15.698-1.299 31.861-.103 82.918.804 34.301.956 36.326 2.919 39 4.751 6.47 3.199 6.318 64.429 6.318 61.231 0 59.679.152 64.429-6.318 1.967-2.679 2.114-4.695 2.929-40 .471-20.449.906-43.704.965-51.679.129-17.399-1.982-42.321-3.942-46.544-1.875-4.039-5.659-6.069-12.57-6.744-4.586-.447-6.718-1.324-11-4.525-6.464-4.832-15.432-9.398-22.811-11.614-5.519-1.658-21.888-2.814-27.5-1.943M69.11 47.396c-4.035 2.236-5.04 5.36-5.022 15.604l.016 9.5 2.071-5.392c1.139-2.965 4.478-8.927 7.421-13.25L78.947 46l-3.723.035c-2.048.02-4.799.632-6.114 1.361M177 46.878c0 .482.749 1.495 1.666 2.25 2.525 2.08 8.32 11.514 10.928 17.787l2.321 5.585.043-9.203c.047-10.316-1.068-13.785-5.103-15.872-3.025-1.564-9.855-1.944-9.855-.547m13.284 68.624c-1.465 4.822-7.064 14.304-12.016 20.346-8.012 9.778-24.21 19.048-38.084 21.795-28.571 5.657-58.671-9.365-71.565-35.717l-4.612-9.426-.004 27.35L64 167.2l3.4 3.4 3.4 3.4 56.35-.015c60.108-.015 59.276.05 63.02-4.996 1.728-2.328 1.844-4.508 1.597-30-.227-23.385-.449-26.891-1.483-23.487" fill="#607d8b" fill-rule="evenodd"/><path fill-opacity=".517" d="M111.216 28.019c-26.465 6.933-46.68 30.288-49.168 56.805-.823 8.766.125 22.662 1.761 25.813.532 1.025 2.887 5.913 5.232 10.863 8.182 17.267 25.73 31.082 44.459 35.001 21.181 4.431 43.434-1.458 58.837-15.573 7.641-7.001 12.635-14.213 17.533-25.318l3.576-8.11-.031-15.5-.031-15.5-3.546-8.11c-5.686-13.006-11.52-20.93-20.824-28.284-15.927-12.59-38.145-17.237-57.798-12.087m1 2C84.088 37.388 64.035 63.186 64.035 92c0 14.606 6.298 31.203 16.017 42.209 6.835 7.74 18.134 15.11 28.233 18.415 6.957 2.276 9.976 2.691 19.715 2.71 9.98.019 12.556-.341 19.49-2.729 25.427-8.757 42.139-30.181 44.19-56.649.795-10.26-1.677-22.121-6.852-32.879-12.557-26.1-44.194-40.504-72.612-33.058M193.125 167c-.155.275-.62 4.688-1.032 9.806-.665 8.251-1.056 9.611-3.444 12l-2.694 2.694H69.836l-2.918-3.266c-2.65-2.965-2.919-3.931-2.933-10.5-.009-3.979-.479-7.909-1.046-8.734-.731-1.064-.944 1.327-.735 8.232.289 9.493.377 9.813 3.565 13l3.268 3.268 57.732.26c56.513.254 57.801.217 61.041-1.772 4.776-2.931 6.336-7.48 5.933-17.3-.185-4.504-.463-7.963-.618-7.688" fill="#607d8b" fill-rule="evenodd"/></svg>