<svg xmlns="http://www.w3.org/2000/svg" width="256" height="256"><path fill-opacity=".176" d="M0 128.004v128.004l128.25-.254 128.25-.254.254-127.75L257.008 0H0v128.004m.485.496c0 70.4.119 99.053.265 63.672.146-35.38.146-92.98 0-128C.604 29.153.485 58.1.485 128.5" fill="#607d8b" fill-rule="evenodd"/><path fill-opacity=".272" d="M0 128.004v128.004l128.25-.254 128.25-.254.254-127.75L257.008 0H0v128.004m.485.496c0 70.4.119 99.053.265 63.672.146-35.38.146-92.98 0-128C.604 29.153.485 58.1.485 128.5m70.814-76.54c-5.487 3.345-6.313 6.251-6.183 21.74.064 7.59.315 12.9.557 11.8 2.061-9.338 9.055-21.475 17.144-29.75l5.62-5.75-6.968.004c-5.147.002-7.806.514-10.17 1.956m103.707 4.835c7.049 7.334 13.076 17.628 15.416 26.329l1.446 5.376.066-14.382c.059-12.925-.146-14.726-2.031-17.774-2.939-4.757-6.597-6.344-14.616-6.344h-6.812l6.531 6.795m-109.94 84.087c-.062 24.769.057 26.581 1.95 29.644 4.066 6.578 3.076 6.474 61.635 6.47 50.971-.003 52.965-.074 56.108-1.991 1.793-1.093 4.153-3.453 5.246-5.246 1.85-3.034 1.986-5.054 1.966-29.259l-.022-26-2.554 7.5c-5.834 17.132-16.526 29.875-31.455 37.488-10.85 5.533-17.007 6.953-29.94 6.904-9.862-.038-12.64-.436-19.5-2.791-14.095-4.84-24.759-12.68-31.846-23.416-5.772-8.745-8.38-14.017-10.109-20.436-1.318-4.896-1.418-3.476-1.479 21.133" fill="#607d8b" fill-rule="evenodd"/><path fill-opacity=".333" d="M111.215 38.94c-21.773 6.225-38.481 23.57-44.85 46.56l-2.216 8-.231-15-.23-15-.774 16.5c-.426 9.075-.414 35.4.027 58.5.876 45.983.976 46.728 6.952 51.757 1.741 1.465 4.615 2.927 6.386 3.248 1.772.322 26.476.453 54.899.29 58.856-.336 54.987.261 59.736-9.218 2.39-4.769 2.422-5.232 3.124-44.448.391-21.796.429-46.604.086-55.129l-.624-15.5-.507 11.5c-.519 11.778-.864 12.198-2.877 3.5-3.553-15.352-17.362-32.763-32.042-40.401-4.291-2.232-10.676-4.736-14.188-5.564-8.766-2.067-24.72-1.869-32.671.405m-47.009 99.278c.281 28.328.387 29.764 2.399 32.461 1.157 1.551 3.632 3.721 5.5 4.821 3.28 1.932 5.193 2 56.395 2 51.323 0 53.111-.064 56.5-2.017 2.13-1.227 4.387-3.796 5.766-6.564 2.212-4.437 2.26-5.207 2-31.983-.146-15.09-.542-26.761-.88-25.936-.337.825-1.134 3.75-1.77 6.5-3.689 15.939-17.435 32.698-33.116 40.376-15.436 7.558-31.656 8.96-47.5 4.107-21.06-6.45-38.202-24.638-43.091-45.719-.862-3.715-1.776-6.964-2.031-7.22-.256-.255-.333 12.873-.172 29.174" fill="#607d8b" fill-rule="evenodd"/><path fill-opacity=".187" d="M119.5 37.698c-12.975 1.72-25.485 8.24-36.032 18.777C73.37 66.564 68.78 75.334 65.817 90.198c-1.814 9.096-1.908 11.08-.824 17.288 4.63 26.523 19.303 45.106 42.03 53.229 9.851 3.521 27.07 4.357 36.977 1.794 21.024-5.439 38.775-22.204 44.778-42.292 4.733-15.841 4.803-21.023.503-37.217-4.191-15.784-17.176-31.399-32.315-38.863-11.851-5.842-24.969-8.097-37.466-6.439M64.594 170.092c.752 4.227 5.085 8.447 10.103 9.841 4.996 1.387 102.396 1.447 107.368.065 4.587-1.274 9.935-6.05 9.935-8.872 0-1.975-.311-1.841-3.093 1.327-1.701 1.937-4.738 4.002-6.75 4.588-2.444.713-20.966.966-55.835.763-51.134-.298-52.233-.346-55-2.396-1.552-1.151-3.837-3.584-5.079-5.407l-2.256-3.316.607 3.407" fill="#607d8b" fill-rule="evenodd"/></svg>