<?xml version="1.0" standalone="no"?>
<!DOCTYPE svg PUBLIC "-//W3C//DTD SVG 20010904//EN"
 "http://www.w3.org/TR/2001/REC-SVG-20010904/DTD/svg10.dtd">
<svg version="1.0" xmlns="http://www.w3.org/2000/svg"
 width="260.000000pt" height="260.000000pt" viewBox="0 0 260.000000 260.000000"
 preserveAspectRatio="xMidYMid meet">
<metadata>
Created by potrace 1.11, written by Peter Selinger 2001-2013
</metadata>
<g transform="translate(0.000000,260.000000) scale(0.100000,-0.100000)"
fill="#000000" stroke="none">
<path d="M860 2170 l0 -430 -430 0 -430 0 0 -435 0 -435 430 0 430 0 0 -435 0
-435 435 0 435 0 0 435 0 435 435 0 435 0 0 435 0 435 -435 0 -435 0 0 430 0
430 -435 0 -435 0 0 -430z m870 -865 l0 -435 -435 0 -435 0 0 435 0 435 435 0
435 0 0 -435z"/>
<path d="M1212 1523 c49 -2 127 -2 176 0 48 1 8 3 -88 3 -96 0 -136 -2 -88 -3z"/>
<path d="M1066 1458 c-13 -74 -4 -362 13 -381 12 -15 40 -17 221 -17 181 0
209 2 221 17 17 20 26 340 11 393 -8 27 -10 -14 -11 -166 -1 -174 -3 -203 -17
-208 -23 -9 -397 -7 -411 2 -9 6 -13 63 -15 207 -2 148 -5 188 -12 153z"/>
<path d="M342 2393 c49 -2 127 -2 175 0 49 1 9 3 -87 3 -96 0 -136 -2 -88 -3z"/>
<path d="M2083 2393 c48 -2 126 -2 175 0 48 1 8 3 -88 3 -96 0 -136 -2 -87 -3z"/>
<path d="M196 2328 c-13 -74 -4 -362 13 -381 12 -15 40 -17 221 -17 181 0 209
2 221 17 17 20 26 340 11 393 -8 27 -10 -14 -11 -166 -1 -174 -3 -203 -17
-208 -23 -9 -397 -7 -411 2 -9 6 -13 63 -15 207 -2 148 -5 188 -12 153z"/>
<path d="M1936 2328 c-13 -74 -4 -362 13 -381 12 -15 40 -17 221 -17 181 0
209 2 221 17 17 20 26 340 11 393 -8 27 -10 -14 -11 -166 -1 -174 -3 -203 -17
-208 -23 -9 -397 -7 -411 2 -9 6 -13 63 -15 207 -2 148 -5 188 -12 153z"/>
</g>
</svg>
