<svg xmlns="http://www.w3.org/2000/svg" width="1218" height="1218"><path d="M0 609.001v609.001l609.25-.251 609.25-.251.251-608.75.251-608.75H0v609.001m.497.499c0 334.95.114 471.826.253 304.168.139-167.658.139-441.708 0-609C.611 137.376.497 274.55.497 609.5m365.259-373.415c-7.69 1.127-18.662 5.029-25.565 9.094-7.245 4.266-19.746 16.767-24.012 24.012-4.489 7.624-7.993 18.064-9.228 27.497-.622 4.744-.911 28.792-.737 61.239l.286 53.427 3.338-11.927c8.385-29.955 25.578-65.69 44.47-92.427 16.044-22.705 39.597-47.932 59.545-63.777L424.205 235l-26.352.122c-14.494.067-28.938.5-32.097.963m439.398 5.562c50.196 39.979 89.345 98.247 106.008 157.78l3.338 11.927.286-53.427c.174-32.447-.115-56.495-.737-61.239-2.151-16.423-8.288-28.865-20.056-40.662-11.607-11.635-23.666-17.683-39.962-20.041-3.592-.52-17.937-.954-31.877-.965l-25.346-.02 8.346 6.647M306.26 673.05c.363 124.169-.06 116.577 7.334 131.564 8.884 18.007 25.655 31.699 45.406 37.069 6.115 1.662 20.699 1.786 246 2.08 170.956.224 241.928-.003 247.985-.793 4.667-.609 11.192-2.007 14.5-3.106 19.3-6.415 36.964-24.079 43.379-43.379 4.011-12.068 4.212-18.694 3.918-128.911l-.282-105.926-3.338 11.926c-1.836 6.559-5.823 18.226-8.858 25.926-42.972 108.988-140.015 183.974-256.39 198.114-17.962 2.182-52.866 2.182-70.828 0-116.371-14.14-213.499-89.193-256.382-198.114-3.031-7.7-6.965-19.175-8.741-25.5-1.776-6.325-3.409-11.702-3.629-11.95-.22-.247-.254 49.703-.074 111" fill="undefined" fill-rule="evenodd"/></svg>